<?xml version="1.0" encoding="UTF-8"?><svg id="c" xmlns="http://www.w3.org/2000/svg" viewBox="0 0 248.48 226.19"><path d="m0,226.19h62.23c9.09,0,17.84-3.51,24.4-9.79l23.57-22.56H41.12c-5.52,0-10.81,2.18-14.72,6.08L0,226.19Z" fill="#ffde00"/><path d="m93.53,133.12l-28.09,27.96c-8.46,8.42-2.5,22.86,9.43,22.86h40.33c3.45,0,6.76-1.33,9.25-3.71l45.27-43.32c5.05-4.83,5.53-12.73,1.1-18.14L77.55,4.9C75.01,1.8,71.22,0,67.21,0H25.95c-11.38,0-17.56,13.31-10.22,22.01l78.58,93c4.5,5.32,4.16,13.2-.78,18.11Z" fill="#ffde00"/><path d="m169.52,95.76h22.56c3.28,0,6.33-1.71,8.04-4.51L247.09,14.33C250.92,8.05,246.4,0,239.05,0h-22.56c-3.28,0-6.33,1.71-8.04,4.51l-46.97,76.91c-3.83,6.28.68,14.33,8.04,14.33Z" fill="#c51617"/><path d="m186.55,209.5h10.65c8.6,0,14.13-9.12,10.16-16.74l-14.67-28.22c-1.97-3.79-5.89-6.17-10.16-6.17h-10.65c-8.6,0-14.13,9.12-10.16,16.74l14.67,28.22c1.97,3.79,5.89,6.17,10.16,6.17Z" fill="#c51617"/></svg>