<?xml version="1.0" encoding="UTF-8"?>
<svg id="a" xmlns="http://www.w3.org/2000/svg" xmlns:xlink="http://www.w3.org/1999/xlink" viewBox="0 0 298.91 261.08">
    <defs>
        <style>
            .f {
                fill: #e30613;
            }

            .g {
                fill: url(#e);
            }

            .h {
                fill: url(#c);
            }

            .i {
                fill: #fcea10;
            }
        </style>
        <linearGradient id="c" x1="21.09" y1="245.69" x2="120.82" y2="245.69" gradientUnits="userSpaceOnUse">
            <stop offset="0" stop-color="#fcea10" />
            <stop offset=".37" stop-color="#fbe810" />
            <stop offset=".5" stop-color="#fbe110" />
            <stop offset=".6" stop-color="#f9d510" />
            <stop offset=".69" stop-color="#f7c410" />
            <stop offset=".76" stop-color="#f5ad10" />
            <stop offset=".82" stop-color="#f29211" />
            <stop offset=".87" stop-color="#ee7111" />
            <stop offset=".93" stop-color="#ea4b12" />
            <stop offset=".97" stop-color="#e62112" />
            <stop offset="1" stop-color="#e30613" />
        </linearGradient>
        <linearGradient id="e" x1="42.28" y1="181.67" x2="139.71" y2="181.67" gradientUnits="userSpaceOnUse">
            <stop offset="0" stop-color="#fcea10" />
            <stop offset=".13" stop-color="#fbe510" />
            <stop offset=".26" stop-color="#fad910" />
            <stop offset=".39" stop-color="#f7c410" />
            <stop offset=".53" stop-color="#f4a710" />
            <stop offset=".67" stop-color="#f08111" />
            <stop offset=".81" stop-color="#eb5211" />
            <stop offset=".95" stop-color="#e51d12" />
            <stop offset="1" stop-color="#e30613" />
        </linearGradient>
    </defs>


    <path class="f"
        d="m288.96,261.08h-52.05l-22.33-22.41c-3.07-3.08-.89-8.33,3.46-8.33l56.26-.04,21.14,21.06c4.02,4,.21,9.72-6.47,9.72Z" />

    <path class="f"
        d="m298.91,0l-77.39,102.79-24.1-32.01-20.16-26.79,23.86-31.69c5.83-7.75,14.97-12.3,24.67-12.3h73.13Z" />

    <path id="b" class="f"
        d="m242.01,195.2c0,10.65-5.4,20.03-13.61,25.56-2.36,1.6-4.95,2.87-7.71,3.76-2.99.98-6.19,1.5-9.51,1.5-2.26,0-4.45-.24-6.57-.71.27-.87,4.22-4.68,4.22-9.7,0-13.5-6.66-16.21-12.7-21.83l26.31-34.95s19.57,20.48,19.57,36.37Z" />

    <path class="h"
        d="m119.6,239.86l-15.97,21.22H27.07c-4.92,0-7.73-5.63-4.77-9.56l15.98-21.22h76.56c4.92,0,7.73,5.62,4.77,9.56Z" />
    <g id="d">

        <path class="g"
            d="m134.16,218.84l-.32.42c-1.92,2.54-4.92,4.04-8.1,4.04H42.28l47.62-63.26,15.06-20c12.89,17.85,23,32.42,27.11,39.63,11.84,20.74,6.39,33.44,6.39,33.44l-4.3,5.73Z" />

        <path class="i"
            d="m203.48,126.77l-11.01,14.62-14.59,19.38-23.94,31.78-4.67,6.21-10.81,14.35s5.45-12.7-6.39-33.44c-4.11-7.21-14.22-21.78-27.11-39.63C65.53,85.42,0,0,0,0h93.21c9.34,0,18.14,4.39,23.76,11.85l42.24,56.12,20.16,26.78,24.11,32.02Z" />
    </g>
</svg>